PathFileType	4	(X/Y/Z)	C:\Users\WrightLab\Desktop\Jo\P1_boxCal15.trc
DataRate	CameraRate	NumFrames	NumMarkers	Units	OrigDataRate	OrigDataStartFrame	OrigNumFrames
100.00	100.00	       24	19	mm	100.00	254	       507
Frame#	Time	Headset_Front			Headset_Back			Headset_Left			Headset_Right			Left_Shoulder			Right_Shoulder			Sternum			C7			Left Elbow			Right Elbow			Left Wrist			Right Wrist			Left ASIS			Right ASIS			S2			Left Knee			Right Knee			Left Ankle			Right Ankle			
		X1	Y1	Z1	X2	Y2	Z2	X3	Y3	Z3	X4	Y4	Z4	X5	Y5	Z5	X6	Y6	Z6	X7	Y7	Z7	X8	Y8	Z8	X9	Y9	Z9	X10	Y10	Z10	X11	Y11	Z11	X12	Y12	Z12	X13	Y13	Z13	X14	Y14	Z14	X15	Y15	Z15	X16	Y16	Z16	X17	Y17	Z17	X18	Y18	Z18	X19	Y19	Z19	

254	2.530	-210.31917	888.97565	613.34424	-170.30803	948.97565	376.56146							-265.16483	1448.86121	563.41559				-446.97064	1269.40222	456.52048	-429.00922	1420.29712	718.04504	-321.05191	1168.40002	675.08533	-632.78839	976.52148	649.20190	-290.21774	1379.98364	756.59503	-544.91724	1253.27454	667.73499				-400.26233	473.89395	737.72333	-352.12601	96.84106	756.50067	-480.11755	885.41852	414.99335	-242.66321	443.73944	408.59195	-369.12100	878.52679	732.29883	-40.74302	792.84253	411.85345	
255	2.540	-206.95598	892.03192	624.02783	-169.19952	952.35107	384.29504							-261.50375	1450.82300	575.09625				-443.03766	1271.95215	466.20810	-425.54645	1421.93079	728.36267	-317.67557	1170.82849	685.53961	-627.14636	979.10065	660.54663	-286.24725	1382.14758	765.86005	-540.23822	1255.66284	678.44165				-397.93188	475.56812	745.90167	-353.16138	96.86337	758.12183	-477.20911	888.74750	424.16229	-227.00485	444.58688	423.72302	-365.80496	881.92102	743.23499	-41.23222	794.41211	416.46564	
256	2.550	-203.45792	894.08429	634.57550	-168.41245	955.58545	390.87872							-257.43671	1452.85144	585.63092				-439.35211	1274.03650	475.86639	-422.22061	1423.53638	738.28589	-313.17569	1173.22803	695.10645	-622.16150	981.79352	671.65924	-282.70221	1383.45728	774.89587	-535.94916	1259.24963	687.58179				-394.26697	477.72195	751.99524	-352.83841	97.45858	759.40015	-473.03314	890.27765	434.84821	-210.33560	446.38120	438.56030	-362.29892	884.67596	754.18713	-41.80135	796.00397	421.41916	
257	2.560	-199.67111	896.55927	644.31091	-166.62175	957.94501	398.92822							-253.59059	1455.16907	594.83923				-435.19574	1276.35010	484.98819	-418.64474	1424.52283	748.11536	-309.05301	1175.24304	703.15143	-616.33954	984.08093	683.01923	-279.25919	1385.36133	784.65027	-531.25531	1261.88525	697.65790				-393.58670	478.21719	759.59015	-352.88596	97.85721	760.27435	-469.12912	891.80487	444.25363	-194.88506	448.50537	453.75531	-358.97696	887.14832	764.22473	-40.67259	797.58624	425.75522	
258	2.570	-196.24513	898.60809	654.03235	-165.09370	960.16101	406.58075							-249.78676	1457.22205	605.53088				-431.25601	1278.80371	494.35666	-414.40173	1424.95691	757.17108	-305.08591	1177.05530	712.85742	-611.80341	986.54865	694.93060	-275.20969	1386.93396	793.44873	-526.30920	1264.41724	707.57825				-393.27267	478.69745	765.44397	-352.26245	97.32808	760.93707	-465.55090	893.26886	453.87222	-179.62581	451.56100	468.49811	-355.73233	889.87128	774.01062	-39.73343	799.05774	429.67810	
259	2.580	-193.08099	900.26190	663.64990	-163.82863	962.54407	413.91589							-245.68941	1459.13208	615.88074				-427.42978	1280.31299	503.56509	-411.53107	1426.07764	766.19611	-300.25360	1178.41541	721.33765	-606.92126	988.92932	706.73779	-271.77112	1388.19092	804.30200	-521.58252	1266.82581	717.46985				-393.41055	477.22217	774.80518	-351.73538	96.91727	761.50220	-461.68823	894.43628	463.30432	-164.23048	454.23965	483.84854	-351.97775	891.44421	784.17969	-38.23905	799.83813	434.96628	
260	2.590	-190.01068	901.89569	673.31598	-161.81425	964.67004	421.26352							-242.16075	1461.45105	624.37360				-423.53961	1282.08557	512.53229	-408.23441	1427.07080	775.26031	-295.64056	1180.42151	728.40851	-602.97003	991.76959	718.73773	-268.41818	1389.43127	814.37183	-517.18237	1269.19690	726.72369				-394.09323	477.04370	780.30884	-350.98608	97.56821	762.06726	-458.05505	895.81439	472.82925	-150.58672	458.68588	499.24258	-349.21118	893.62622	793.75366	-37.03152	800.95111	440.05417	
261	2.600	-187.07173	903.29950	683.25446	-159.24376	965.89191	427.57468							-238.49646	1463.08447	634.71814				-419.74783	1283.58923	521.15936	-404.54480	1428.12085	783.91290	-291.95612	1182.50281	737.78778	-599.03937	993.98730	731.01758	-264.61841	1391.72217	827.52942	-512.34607	1271.12769	735.90582				-396.89853	474.44888	785.37701	-352.16971	97.53997	762.27020	-454.12622	897.28967	482.18771	-137.68230	462.37045	516.17548	-346.53445	895.79199	803.38641	-35.44485	802.21893	445.12704	
262	2.610	-184.19780	904.22180	692.11462	-157.04355	967.58832	434.56018							-234.40669	1465.06372	642.59955				-415.91223	1285.32898	529.85968	-401.27304	1429.22449	792.79340	-286.85699	1183.71313	745.61542	-594.90448	996.43567	742.67938	-261.54285	1390.98120	832.23358	-507.75299	1273.08313	744.50922				-400.25421	472.74585	790.22583	-353.39642	97.98997	761.86609	-449.73138	898.38116	491.58090	-125.36003	467.17276	532.75323	-343.77542	897.08344	812.43182	-33.68224	802.60284	449.97443	
263	2.620	-180.50450	905.12378	701.72003	-153.92824	968.06073	441.79526							-230.53578	1466.76184	651.67999				-411.92404	1286.69556	538.60254	-397.43408	1429.82922	800.95844	-281.51205	1184.54822	753.73895	-590.98560	998.52655	754.41779	-258.17682	1393.36206	845.35370	-503.20953	1274.86780	752.77209				-402.52356	470.73849	792.73676	-353.91159	97.57217	759.21130	-445.77094	900.00220	500.54929	-113.24905	471.58499	550.00952	-341.73480	898.71722	821.85016	-31.97691	803.51166	455.96207	
264	2.630	-177.47270	905.50647	710.68274	-151.17679	969.28632	448.41702							-226.71672	1468.50427	660.83734				-407.93103	1288.02771	546.12482	-394.83603	1431.12891	809.79980	-277.44150	1186.53259	761.36597	-587.68237	1000.32959	765.93994	-254.81082	1392.00330	849.40045	-498.88107	1276.65918	760.70447				-405.88321	469.37167	794.79260	-355.02893	94.97537	756.45477	-441.68164	901.14587	509.12360	-100.81853	476.65054	566.51611	-339.08621	899.51495	829.78668	-29.84007	804.78094	461.45218	
265	2.640	-173.91483	906.79852	720.30127	-148.40359	969.61835	455.72250							-222.35837	1469.68005	670.39130				-404.15958	1289.33484	554.78113	-390.66562	1432.12048	817.86230	-273.53845	1187.69019	770.41809	-584.22656	1002.68207	777.01697	-251.20723	1392.94055	857.05524	-495.40396	1278.26868	769.19458				-407.48849	468.61227	795.84772	-356.61188	95.84059	755.35272	-436.87363	903.02386	517.17163	-89.84264	480.63953	584.08502	-337.03741	900.51544	838.12634	-27.14503	804.87573	467.00116	
266	2.650	-170.83376	906.76453	729.93353	-145.12080	971.06427	462.36606							-219.47089	1470.27942	673.97742				-400.18521	1290.46521	562.66156	-387.18832	1433.44983	826.20288	-269.20761	1189.14270	777.74323	-581.36786	1004.62457	787.52893	-248.47244	1394.12012	867.17706	-491.69012	1279.71118	776.68457				-409.31091	467.54657	797.48535	-357.07217	95.31974	753.48499	-432.36307	904.53931	525.65515	-79.54052	485.53439	601.64331	-335.02051	901.87531	846.19946	-24.86523	805.71686	472.53049	
267	2.660	-166.79013	908.14465	739.06409	-142.62212	971.74835	469.64407							-214.75061	1471.83691	688.21411				-396.12250	1291.38794	571.04639	-383.97583	1434.49524	834.48468	-265.64780	1190.37170	785.88190	-578.08008	1006.45538	797.60101	-244.90273	1396.71216	879.96680	-488.27588	1281.26685	784.46375				-410.42950	466.61526	799.78589	-357.57535	95.35092	752.82153	-427.55408	905.80963	533.16156	-71.02684	489.63788	619.13263	-332.74789	903.43188	853.88336	-22.62913	806.04260	478.82242	
268	2.670	-163.87834	909.08966	749.54999	-139.68912	971.98401	476.49991							-212.00500	1472.03601	691.01843				-392.55231	1292.25391	578.90546	-380.54492	1434.96045	842.54510	-263.62558	1193.16431	795.35071	-574.72760	1008.21277	807.61304	-241.63010	1395.09082	882.39661	-485.12180	1282.88281	792.12897				-412.08041	466.07883	802.34515	-358.25046	95.44099	752.31335	-423.42459	907.25610	541.72644	-62.28904	495.59573	635.21893	-330.24783	904.64771	861.49518	-20.37963	806.76959	484.79367	
269	2.680	-159.99593	910.24835	758.67523	-137.22990	972.86920	484.81735							-206.99301	1473.12207	706.04987				-388.84766	1293.12939	587.10107	-377.47433	1436.42310	851.06506	-259.50772	1192.80090	804.24573	-571.61176	1009.82874	816.97650	-238.97360	1396.18042	891.41229	-481.93347	1284.04468	799.42657				-412.97479	465.24857	804.56799	-358.40009	95.43331	752.41846	-419.04730	908.63684	549.01764	-55.07869	499.61337	651.78363	-327.46951	905.81177	868.84082	-17.52794	807.29706	492.16208	
270	2.690	-156.47537	911.38464	768.40820	-134.36317	973.75208	491.65781							-204.09058	1472.78894	709.15405				-385.07181	1293.49719	595.12213	-373.78699	1436.72986	858.99561	-255.93571	1193.87402	811.09302	-568.76855	1011.22168	826.42194	-236.09224	1396.35156	900.66296	-478.94998	1285.34924	807.29291				-413.89972	464.67831	807.75568	-357.99915	94.99792	752.76111	-414.23206	908.58295	556.78986	-49.53103	504.02188	666.99139	-324.95370	907.13617	876.76416	-14.89714	807.74274	498.13672	
271	2.700	-153.38014	912.58740	779.05396	-131.81860	974.19513	500.08862							-199.50389	1474.43933	721.74286				-381.39667	1294.26440	603.40381	-370.06131	1437.51636	866.93347	-253.35977	1195.16382	819.66510	-565.38464	1012.40887	835.30408	-232.87103	1396.00317	908.49182	-476.01605	1286.19287	814.61768				-413.46432	464.90939	810.89966	-357.88736	94.93282	753.00592	-409.65009	909.83093	564.13654	-44.45163	508.11017	683.06165	-322.87579	907.93341	884.53851	-12.46718	808.49689	504.13318	
272	2.710	-149.66077	913.70709	788.30505	-129.27516	975.06140	507.68649							-195.44423	1474.54211	731.84747				-377.48007	1294.40393	611.75140	-366.70361	1438.17957	875.27289	-250.33499	1195.05212	828.80591	-562.23682	1013.37024	843.93719	-228.55074	1398.79358	922.15710	-472.92926	1287.23682	822.33484				-412.35507	464.37161	813.96588	-358.06274	95.12597	753.54779	-404.39850	909.57233	571.16486	-38.84436	511.36340	697.91730	-321.02170	908.84717	892.66541	-10.12479	808.37799	511.81696	
273	2.720	-147.05205	914.43610	797.71881	-126.92226	975.28271	515.03650							-191.99512	1474.93140	738.46649				-373.66092	1294.89050	619.35693	-363.34137	1438.75854	883.50104	-248.74989	1196.45142	838.19110	-559.70544	1014.32495	853.09277	-226.19466	1397.23340	925.21088	-469.84137	1287.69788	829.72260				-411.77368	465.20490	817.97308	-358.08026	95.96188	754.47278	-399.44418	909.75067	578.19611	-34.74541	514.13513	714.35266	-318.48798	909.01343	899.48206	-7.72458	809.08942	518.50000	
274	2.730	-144.43394	915.36011	808.31335	-123.60172	975.78375	524.09869							-188.05713	1474.78882	748.13074				-369.90192	1295.06433	627.39917	-360.14941	1439.04541	891.44177	-245.96249	1196.30627	845.74915	-556.84808	1014.84662	861.68109	-223.34396	1397.66467	934.04974	-466.62427	1288.04065	837.14307				-409.55728	464.23676	821.11108	-357.85522	95.95827	754.82153	-394.04074	910.04388	585.72516	-30.49255	517.06226	729.58374	-317.09048	909.46497	907.43054	-4.59157	809.11377	526.09180	
275	2.740	-141.33629	915.65112	818.21320	-120.90418	975.77441	532.42944							-185.53134	1473.74219	752.15228				-366.00800	1295.17297	635.42352	-356.70615	1439.38586	899.64178	-242.36047	1196.07263	854.10583	-554.24274	1015.50751	870.35687	-220.35315	1396.93372	942.25708	-463.71362	1288.34277	844.75598				-406.50955	462.61371	824.93732	-357.54211	95.93550	755.31030	-387.74457	909.04260	592.30402	-26.44891	518.72498	744.88550	-315.48132	909.12634	915.13275	-1.83873	809.20422	534.47546	
276	2.750	-138.47673	915.68958	828.01453	-116.73043	976.31702	540.76874							-181.41605	1473.22437	759.74640				-361.43033	1295.38074	643.38330	-354.06915	1440.01880	908.38965	-240.54230	1195.63123	863.13153	-551.64972	1015.90320	879.88513	-217.27231	1397.28357	950.81921	-460.85345	1288.53101	852.07391				-403.96176	461.93173	828.73639	-357.26706	95.91879	755.70807	-381.59653	909.02081	599.20490	-23.45733	520.29559	760.93298	-314.65186	909.27350	922.29993	0.90417	808.22180	541.95380	
277	2.760	-135.66202	915.47150	838.21942	-113.25144	976.20239	549.85052							-177.10461	1474.25793	773.65082				-357.32022	1295.65625	651.28430	-350.48538	1439.83252	916.34735	-237.81259	1195.18933	872.48547	-548.68329	1015.91187	888.73474	-213.85481	1397.40796	961.65491	-458.01624	1288.33850	859.37964				-400.83328	460.92917	832.72668	-357.24521	96.80466	756.52435	-375.20114	909.15363	606.12439	-20.38798	521.34015	776.40747	-312.77893	908.90747	929.99194	4.23188	808.36328	550.36792	
